<?xml version="1.0" encoding="UTF-8" standalone="no"?>
<!-- Generator: Adobe Illustrator 19.1.0, SVG Export Plug-In . SVG Version: 6.00 Build 0)  -->

<svg
   xmlns:dc="http://purl.org/dc/elements/1.1/"
   xmlns:cc="http://creativecommons.org/ns#"
   xmlns:rdf="http://www.w3.org/1999/02/22-rdf-syntax-ns#"
   xmlns:svg="http://www.w3.org/2000/svg"
   xmlns="http://www.w3.org/2000/svg"
   xmlns:sodipodi="http://sodipodi.sourceforge.net/DTD/sodipodi-0.dtd"
   xmlns:inkscape="http://www.inkscape.org/namespaces/inkscape"
   version="1.1"
   id="Layer_1"
   x="0px"
   y="0px"
   viewBox="152 -380.1 300 65.780296"
   xml:space="preserve"
   sodipodi:docname="logo-white-s-uk-3.svg"
   width="300"
   height="65.780296"
   inkscape:version="0.92.2 (5c3e80d, 2017-08-06)"><metadata
     id="metadata89"><rdf:RDF><cc:Work
         rdf:about=""><dc:format>image/svg+xml</dc:format><dc:type
           rdf:resource="http://purl.org/dc/dcmitype/StillImage" /><dc:title></dc:title></cc:Work></rdf:RDF></metadata><defs
     id="defs87" /><sodipodi:namedview
     pagecolor="#ffffff"
     bordercolor="#666666"
     borderopacity="1"
     objecttolerance="10"
     gridtolerance="10"
     guidetolerance="10"
     inkscape:pageopacity="0"
     inkscape:pageshadow="2"
     inkscape:window-width="1858"
     inkscape:window-height="1057"
     id="namedview85"
     showgrid="false"
     fit-margin-top="0"
     fit-margin-left="0"
     fit-margin-right="0"
     fit-margin-bottom="0"
     inkscape:zoom="1.9295176"
     inkscape:cx="110.61845"
     inkscape:cy="40.385013"
     inkscape:window-x="-8"
     inkscape:window-y="-8"
     inkscape:window-maximized="1"
     inkscape:current-layer="Layer_1" /><style
     type="text/css"
     id="style2">
	.st0{fill:#FFFFFF;}
	.st1{fill:#4CAF50;}
	.st2{fill:#F44336;}
	.st3{fill:#FFB300;}
	.st4{fill:#636E81;}
</style><g
     id="g82"
     transform="matrix(1.3077594,0,0,1.3077594,-401.18223,-14.581248)"><g
       id="g40"><g
         id="g38"><path
           class="st0"
           d="m 428.9,-231.8 h -3.6 l -1,2.4 H 423 l 3.7,-9.2 h 0.7 l 3.8,9.2 h -1.4 z m -3.2,-1 h 2.8 l -1,-2.6 -0.3,-1.4 v 0 l -0.3,1.4 z"
           id="path4"
           inkscape:connector-curvature="0"
           style="fill:#ffffff" /><path
           class="st0"
           d="m 443.1,-233.4 h -4.6 v 4.1 h -1.3 v -9.1 h 1.3 v 3.9 h 4.6 v -3.9 h 1.3 v 9.1 h -1.3 z"
           id="path6"
           inkscape:connector-curvature="0"
           style="fill:#ffffff" /><path
           class="st0"
           d="m 456.2,-231.8 h -3.6 l -1,2.4 h -1.3 l 3.7,-9.2 h 0.7 l 3.8,9.2 h -1.4 z m -3.2,-1 h 2.8 l -1,-2.6 -0.3,-1.4 v 0 l -0.3,1.4 z"
           id="path8"
           inkscape:connector-curvature="0"
           style="fill:#ffffff" /><path
           class="st0"
           d="m 469.7,-237.3 h -2.9 c 0,0.9 -0.1,1.6 -0.1,2.3 -0.1,0.7 -0.1,1.3 -0.2,1.9 -0.1,0.6 -0.2,1.1 -0.3,1.5 -0.1,0.4 -0.3,0.8 -0.4,1.1 -0.2,0.4 -0.5,0.7 -0.8,0.9 -0.3,0.2 -0.6,0.3 -0.9,0.3 -0.2,0 -0.3,0 -0.4,0 -0.1,0 -0.2,-0.1 -0.4,-0.1 l 0.2,-1.1 c 0.1,0 0.2,0 0.3,0 0.1,0 0.2,0 0.3,-0.1 0.1,0 0.2,-0.1 0.3,-0.2 0.1,-0.1 0.2,-0.2 0.3,-0.4 0.1,-0.2 0.3,-0.5 0.4,-0.9 0.1,-0.4 0.2,-0.9 0.3,-1.5 0.1,-0.6 0.2,-1.3 0.2,-2.1 0.1,-0.8 0.1,-1.8 0.1,-2.9 h 5.4 v 9.1 h -1.3 v -7.8 z"
           id="path10"
           inkscape:connector-curvature="0"
           style="fill:#ffffff" /><path
           class="st0"
           d="m 478.8,-237.6 h -1 v -0.9 h 3.4 v 0.9 h -1 v 7.4 h 1 v 0.9 h -3.4 v -0.9 h 1 z"
           id="path12"
           inkscape:connector-curvature="0"
           style="fill:#ffffff" /><path
           class="st0"
           d="m 494.4,-237.3 h -3.1 v 8 H 490 v -8 h -3 v -1.1 h 7.4 z"
           id="path14"
           inkscape:connector-curvature="0"
           style="fill:#ffffff" /><path
           class="st0"
           d="m 506.5,-235.4 0.1,-1 h -0.1 l -0.6,1 -4.7,6 h -0.8 v -9.1 h 1.3 v 6.1 l -0.1,1 h 0.1 l 0.7,-1 4.7,-6 h 0.8 v 9.1 h -1.3 v -6.1 z"
           id="path16"
           inkscape:connector-curvature="0"
           style="fill:#ffffff" /><path
           class="st0"
           d="m 516,-238.5 v 2.9 c 0,0.6 0.1,1 0.4,1.3 0.3,0.3 0.7,0.5 1.3,0.5 0.4,0 0.9,-0.1 1.2,-0.2 0.3,-0.1 0.7,-0.2 0.9,-0.4 v -4.1 h 1.3 v 9.1 h -1.3 v -3.9 c -0.3,0.1 -0.6,0.3 -1,0.4 -0.4,0.1 -0.9,0.2 -1.4,0.2 -0.4,0 -0.8,0 -1.1,-0.1 -0.3,-0.1 -0.6,-0.3 -0.9,-0.5 -0.3,-0.2 -0.4,-0.5 -0.6,-0.8 -0.1,-0.3 -0.2,-0.7 -0.2,-1.2 v -3.1 z"
           id="path18"
           inkscape:connector-curvature="0"
           style="fill:#ffffff" /><path
           class="st0"
           d="m 534.1,-233.4 h -4.6 v 4.1 h -1.3 v -9.1 h 1.3 v 3.9 h 4.6 v -3.9 h 1.3 v 9.1 h -1.3 z"
           id="path20"
           inkscape:connector-curvature="0"
           style="fill:#ffffff" /><path
           class="st0"
           d="m 548.4,-235.4 0.1,-1 h -0.1 l -0.6,1 -4.7,6 h -0.8 v -9.1 h 1.3 v 6.1 l -0.1,1 h 0.1 l 0.7,-1 4.7,-6 h 0.8 v 9.1 h -1.3 z"
           id="path22"
           inkscape:connector-curvature="0"
           style="fill:#ffffff" /><path
           class="st0"
           d="m 562.8,-235.4 0.1,-1 h -0.1 l -0.6,1 -4.7,6 h -0.8 v -9.1 h 1.3 v 6.1 l -0.1,1 h 0.1 l 0.7,-1 4.7,-6 h 0.8 v 9.1 h -1.3 v -6.1 z m -3.5,-5.3 c 0,0.3 0.2,0.5 0.4,0.7 0.2,0.2 0.5,0.2 0.9,0.2 0.4,0 0.7,-0.1 0.9,-0.2 0.2,-0.2 0.4,-0.4 0.4,-0.7 l 1.1,0.2 c -0.1,0.5 -0.4,0.8 -0.7,1.1 -0.4,0.3 -0.9,0.4 -1.6,0.4 -0.7,0 -1.2,-0.1 -1.7,-0.4 -0.4,-0.2 -0.7,-0.6 -0.8,-1.1 z"
           id="path24"
           inkscape:connector-curvature="0"
           style="fill:#ffffff" /><path
           class="st0"
           d="m 585.3,-237.3 h -4.4 v 8 h -1.3 v -9.1 h 7 v 9.1 h -1.3 z"
           id="path26"
           inkscape:connector-curvature="0"
           style="fill:#ffffff" /><path
           class="st0"
           d="m 593.2,-233.9 c 0,-0.7 0.1,-1.4 0.3,-2 0.2,-0.6 0.5,-1.1 0.8,-1.5 0.4,-0.4 0.8,-0.7 1.3,-0.9 0.5,-0.2 1.1,-0.3 1.7,-0.3 0.7,0 1.3,0.1 1.8,0.3 0.5,0.2 0.9,0.6 1.3,1 0.4,0.4 0.6,0.9 0.8,1.5 0.2,0.6 0.3,1.2 0.3,1.9 0,0.7 -0.1,1.4 -0.3,2 -0.2,0.6 -0.5,1.1 -0.8,1.5 -0.4,0.4 -0.8,0.7 -1.3,0.9 -0.5,0.2 -1.1,0.3 -1.7,0.3 -0.7,0 -1.3,-0.1 -1.8,-0.3 -0.5,-0.2 -0.9,-0.6 -1.3,-1 -0.3,-0.4 -0.6,-0.9 -0.8,-1.5 -0.2,-0.6 -0.3,-1.2 -0.3,-1.9 z m 1.4,0 c 0,0.5 0.1,1 0.2,1.4 0.1,0.4 0.3,0.8 0.5,1.1 0.2,0.3 0.5,0.6 0.8,0.8 0.3,0.2 0.7,0.3 1.2,0.3 0.8,0 1.5,-0.3 2,-0.9 0.5,-0.6 0.7,-1.5 0.7,-2.7 0,-0.5 -0.1,-0.9 -0.2,-1.4 -0.1,-0.5 -0.3,-0.8 -0.5,-1.1 -0.2,-0.3 -0.5,-0.6 -0.8,-0.8 -0.3,-0.2 -0.8,-0.3 -1.2,-0.3 -0.8,0 -1.5,0.3 -2,0.9 -0.4,0.6 -0.7,1.5 -0.7,2.7 z"
           id="path28"
           inkscape:connector-curvature="0"
           style="fill:#ffffff" /><path
           class="st0"
           d="m 608,-238.4 c 0.4,-0.1 0.8,-0.1 1.2,-0.2 0.4,-0.1 0.9,0 1.3,0 0.4,0 0.9,0 1.3,0.1 0.5,0.1 0.9,0.2 1.2,0.4 0.4,0.2 0.7,0.5 0.9,0.9 0.2,0.4 0.4,0.8 0.4,1.4 0,0.5 -0.1,1 -0.3,1.4 -0.2,0.4 -0.5,0.7 -0.9,0.9 -0.4,0.2 -0.8,0.4 -1.2,0.5 -0.5,0.1 -0.9,0.2 -1.4,0.2 -0.1,0 -0.1,0 -0.2,0 -0.1,0 -0.2,0 -0.3,0 -0.1,0 -0.2,0 -0.3,0 -0.1,0 -0.2,0 -0.2,0 v 3.4 H 608 Z m 2.5,1 c -0.2,0 -0.5,0 -0.7,0 -0.2,0 -0.4,0 -0.5,0.1 v 3.4 c 0,0 0.1,0 0.2,0 0.1,0 0.2,0 0.3,0 0.1,0 0.2,0 0.3,0 0.1,0 0.2,0 0.2,0 0.3,0 0.6,0 0.9,-0.1 0.3,0 0.6,-0.1 0.8,-0.3 0.2,-0.2 0.4,-0.3 0.6,-0.6 0.2,-0.2 0.2,-0.6 0.2,-1 0,-0.3 -0.1,-0.6 -0.2,-0.8 -0.1,-0.2 -0.3,-0.4 -0.6,-0.5 -0.2,-0.1 -0.5,-0.2 -0.8,-0.3 -0.1,0.1 -0.4,0.1 -0.7,0.1 z"
           id="path30"
           inkscape:connector-curvature="0"
           style="fill:#ffffff" /><path
           class="st0"
           d="m 627,-237.3 h -3 v 8 h -1.3 v -8 h -3.1 v -1.1 h 7.4 z"
           id="path32"
           inkscape:connector-curvature="0"
           style="fill:#ffffff" /><path
           class="st0"
           d="m 637,-231.8 h -3.6 l -1,2.4 h -1.3 l 3.7,-9.2 h 0.7 l 3.8,9.2 H 638 Z m -3.2,-1 h 2.8 l -1,-2.6 -0.3,-1.4 v 0 l -0.3,1.4 z"
           id="path34"
           inkscape:connector-curvature="0"
           style="fill:#ffffff" /><path
           class="st0"
           d="m 650.5,-237.3 h -2.9 c 0,0.9 -0.1,1.6 -0.1,2.3 -0.1,0.7 -0.1,1.3 -0.2,1.9 -0.1,0.6 -0.2,1.1 -0.3,1.5 -0.1,0.4 -0.3,0.8 -0.4,1.1 -0.2,0.4 -0.5,0.7 -0.8,0.9 -0.3,0.2 -0.6,0.3 -0.9,0.3 -0.2,0 -0.3,0 -0.4,0 -0.1,0 -0.2,-0.1 -0.4,-0.1 l 0.2,-1.1 c 0.1,0 0.2,0 0.3,0 0.1,0 0.2,0 0.3,-0.1 0.1,0 0.2,-0.1 0.3,-0.2 0.1,-0.1 0.2,-0.2 0.3,-0.4 0.1,-0.2 0.3,-0.5 0.4,-0.9 0.1,-0.4 0.2,-0.9 0.3,-1.5 0.1,-0.6 0.2,-1.3 0.2,-2.1 0.1,-0.8 0.1,-1.8 0.1,-2.9 h 5.4 v 9.1 h -1.3 z"
           id="path36"
           inkscape:connector-curvature="0"
           style="fill:#ffffff" /></g></g><g
       id="g50"><rect
         x="423"
         y="-249.60001"
         class="st1"
         width="57.400002"
         height="3.2"
         id="rect42"
         style="fill:#4caf50" /><rect
         x="480.29999"
         y="-249.60001"
         class="st2"
         width="53.900002"
         height="3.2"
         id="rect44"
         style="fill:#f44336" /><rect
         x="534.20001"
         y="-249.60001"
         class="st3"
         width="60.900002"
         height="3.2"
         id="rect46"
         style="fill:#ffb300" /><rect
         x="595"
         y="-249.60001"
         class="st4"
         width="57.400002"
         height="3.2"
         id="rect48"
         style="fill:#636e81" /></g><path
       class="st0"
       d="m 447.8,-256.7 h -17 c -4.6,0 -7.4,-3.4 -7.4,-7.8 v -7 c 0,-4.3 2.3,-7.9 7.2,-7.9 h 12.5 l -0.1,5.6 h -9.4 c -1.9,0 -3,1.4 -3,2.9 v 5.6 c 0,2.2 1.1,2.9 3.2,2.9 h 14 z"
       id="path52"
       inkscape:connector-curvature="0"
       style="fill:#ffffff" /><path
       class="st0"
       d="m 466.8,-268.4 c 0,-8.3 2.6,-11.1 11.4,-11.1 8.8,0 11.4,2.6 11.4,11.3 0,8.5 -2.5,11.4 -11.4,11.4 -8.8,0 -11.4,-2.9 -11.4,-11.6 z m 6.8,0.3 c 0,4.5 1,5.8 4.6,5.8 3.6,0 4.6,-1.2 4.6,-5.9 0,-3.9 -1.2,-5.8 -4.6,-5.8 -3.5,0.1 -4.6,1.9 -4.6,5.9 z"
       id="path54"
       inkscape:connector-curvature="0"
       style="fill:#ffffff" /><path
       class="st0"
       d="m 498.3,-270.8 h 6.3 c 0.2,0 1.2,-0.1 1.2,-1.6 0,-1.5 -0.8,-1.3 -1.2,-1.5 H 499 c -0.4,0 -0.7,0.4 -0.7,0.7 z m -0.2,7.8 c 0,0.3 0.3,0.8 0.8,0.8 h 6 c 0.4,-0.2 1.3,0 1.3,-1.7 0,-1.6 -0.9,-1.7 -1.3,-1.7 H 498 v 2.6 z m -3.4,-16.5 c 0,0 8.4,0 13.3,0 5,0 4.7,5.1 4.7,5.1 0,0 0,-2.6 0,1.6 0,4.2 -3.4,4.2 -3.4,4.2 4.1,0 4.1,5.4 4.1,5.4 v 0.9 c 0,0 0,5.6 -5.2,5.6 0,0 -12.6,0 -14.1,0 -3.2,0 -3.2,-3 -3.2,-3 v -15.7 c 0.1,-4.1 3.8,-4.1 3.8,-4.1 z"
       id="path56"
       inkscape:connector-curvature="0"
       style="fill:#ffffff" /><path
       class="st0"
       d="m 514.4,-268.4 c 0,-8.3 2.6,-11.1 11.4,-11.1 8.8,0 11.4,2.6 11.4,11.3 0,8.5 -2.5,11.4 -11.4,11.4 -8.8,0 -11.4,-2.9 -11.4,-11.6 z m 6.9,0.3 c 0,4.5 1,5.8 4.6,5.8 3.6,0 4.6,-1.2 4.6,-5.9 0,-3.9 -1.2,-5.8 -4.6,-5.8 -3.5,0.1 -4.6,1.9 -4.6,5.9 z"
       id="path58"
       inkscape:connector-curvature="0"
       style="fill:#ffffff" /><rect
       x="547"
       y="-271.79999"
       class="st0"
       width="7.5"
       height="15.1"
       id="rect60"
       style="fill:#ffffff" /><rect
       x="547.09998"
       y="-279.5"
       class="st0"
       width="7.3000002"
       height="6.1999998"
       id="rect62"
       style="fill:#ffffff" /><g
       id="g68"><rect
         x="592.5"
         y="-271.79999"
         class="st0"
         width="7.5"
         height="15.1"
         id="rect64"
         style="fill:#ffffff" /><rect
         x="592.59998"
         y="-279.5"
         class="st0"
         width="7.3000002"
         height="6.1999998"
         id="rect66"
         style="fill:#ffffff" /></g><g
       id="g74"><rect
         x="563.5"
         y="-262.5"
         class="st0"
         width="27.700001"
         height="5.6999998"
         id="rect70"
         style="fill:#ffffff" /><path
         class="st0"
         d="m 563.5,-256.7 13,-19.9 c 1,-1.5 2.2,-2.9 3.8,-2.9 h 5 c 2.6,0 3.6,1.2 3.6,2.9 v 19.9 h -7.2 v -15.2 c 0,0 0.1,-1 -0.1,-0.9 l -9.6,16.1 z"
         id="path72"
         inkscape:connector-curvature="0"
         style="fill:#ffffff" /></g><path
       class="st0"
       d="m 602,-256.7 13,-19.9 c 1,-1.5 2.2,-2.9 3.8,-2.9 h 5 c 2.6,0 3.6,1.2 3.6,2.9 v 19.9 h -7.2 v -15.2 c 0,0 0.1,-1 -0.1,-0.9 l -9.6,16.1 z"
       id="path76"
       inkscape:connector-curvature="0"
       style="fill:#ffffff" /><path
       class="st0"
       d="m 439.9,-256.7 13,-19.9 c 1,-1.5 2.2,-2.9 3.8,-2.9 h 5 c 2.6,0 3.6,1.2 3.6,2.9 v 19.9 h -7.2 v -15.2 c 0,0 0.1,-1 -0.1,-0.9 l -9.6,16.1 z"
       id="path78"
       inkscape:connector-curvature="0"
       style="fill:#ffffff" /><path
       class="st0"
       d="m 629,-268.4 c 0,-8.3 2.6,-11.1 11.4,-11.1 8.8,0 11.4,2.6 11.4,11.3 0,8.5 -2.5,11.4 -11.4,11.4 -8.8,0 -11.4,-2.9 -11.4,-11.6 z m 6.8,0.3 c 0,4.5 1,5.8 4.6,5.8 3.6,0 4.6,-1.2 4.6,-5.9 0,-3.9 -1.2,-5.8 -4.6,-5.8 -3.5,0.1 -4.6,1.9 -4.6,5.9 z"
       id="path80"
       inkscape:connector-curvature="0"
       style="fill:#ffffff" /></g></svg>